<svg width="31" height="43" viewBox="0 0 31 43" fill="none" xmlns="http://www.w3.org/2000/svg">
<path d="M11.406 1.31813C7.08932 2.606 3.89647 5.08074 1.77642 8.84335C0.26939 11.5453 -0.318094 15.6615 0.422647 18.515C1.08676 21.0655 2.7215 24.0958 4.79046 26.6463C6.2464 28.4644 6.80834 29.3988 7.26812 30.7624C7.8556 32.5553 7.93223 34.3483 7.42137 35.2826C7.21703 35.6361 7.29366 35.9139 7.6768 36.419C7.98331 36.8482 8.13657 37.3533 8.05994 37.7321C7.8556 38.8684 9.79685 39.9795 11.9935 39.9795C12.6832 39.9795 12.8364 40.1058 13.0919 40.8634C13.4239 41.8735 13.9859 42.2523 15.1353 42.2523C16.2081 42.2523 16.8467 41.8735 17.4341 40.9139C17.8684 40.2068 18.1749 40.0805 20.014 39.6765C22.747 39.0957 23.4112 38.6664 23.2324 37.6311C23.1813 37.1765 23.2834 36.5957 23.4878 36.2674C23.7688 35.8634 23.7943 35.5856 23.59 35.2321C23.4622 34.9796 23.4112 34.4998 23.4878 34.222C23.5644 33.919 23.4878 33.4897 23.309 33.2877C23.0536 32.9846 23.0536 32.6563 23.2579 31.823C23.4112 31.2422 23.59 30.3331 23.6666 29.8281C23.8198 28.6917 25.8888 25.8887 27.3192 24.8534C29.0561 23.5907 30.1289 22.2271 30.4354 20.7877C30.5887 20.0807 30.6653 19.3988 30.6142 19.3231C30.5631 19.2221 30.3843 17.6564 30.2311 15.813C29.899 12.1262 29.5159 10.5858 28.3409 8.16153C26.7573 4.95448 23.0025 2.12621 19.1966 1.21712C16.9999 0.712074 13.3728 0.762581 11.406 1.31813ZM20.5504 2.98479C23.59 4.1969 25.8633 6.3181 27.2937 9.24738C28.4942 11.7221 28.392 12.1514 27.0893 10.1817C25.6845 8.08577 22.8492 5.13124 21.24 4.09589C20.5504 3.6666 19.3243 3.03529 18.5069 2.70701C17.1276 2.12621 17.1021 2.10096 18.0727 2.25247C18.6347 2.35348 19.7585 2.68176 20.5504 2.98479ZM19.2221 4.39892C22.4405 5.91407 25.1736 8.79284 27.217 12.8332C28.5708 15.5352 28.7241 16.3181 28.2898 18.3887C27.6002 21.6211 26.323 23.4897 22.8492 26.318C21.24 27.6311 20.2949 28.9442 20.1417 30.1311C20.0651 30.6109 19.9629 31.1917 19.8607 31.419C19.6564 31.9745 18.4559 32.5048 18.1238 32.1766C17.8684 31.924 18.0472 22.4039 18.3281 21.217C18.5069 20.5605 18.5836 20.5352 19.9884 20.5352C21.7764 20.5352 22.7981 19.9039 22.7981 18.7675C22.7981 18.3635 22.9258 17.9595 23.0536 17.8837C23.5133 17.6059 23.3345 15.8383 22.7726 15.1059C22.3128 14.5504 22.0829 14.4494 21.4188 14.5756C20.4993 14.7524 18.8901 16.2423 18.4303 17.2776C18.0983 18.0857 17.5619 18.1867 16.7956 17.6059C16.4124 17.3281 16.3613 17.1766 16.6168 17.0251C17.051 16.7726 17.4341 15.3585 17.4341 14.0201C17.4341 12.6565 16.3869 11.4443 15.1864 11.4443C14.2413 11.4443 13.1174 12.6565 13.0663 13.6665C13.0152 14.9292 13.143 16.0655 13.3984 16.7221C13.5772 17.2271 13.5516 17.4292 13.194 17.6817C12.5044 18.1867 12.1468 18.0857 11.9935 17.3029C11.7381 16.1413 10.8186 14.9797 9.89902 14.5756C9.13274 14.2726 8.87731 14.2726 8.13657 14.5756C7.08932 15.0049 6.91052 15.2827 6.91052 16.3686C6.91052 18.1362 8.59634 19.7776 10.3843 19.7776C11.2017 19.7776 11.3039 19.8534 11.4316 20.5857C11.5082 21.0402 11.5848 23.8433 11.6359 26.7978C11.687 32.7574 11.7636 32.5553 9.92457 31.7978C9.08165 31.4442 8.82623 31.0149 8.26428 28.9695C8.08548 28.3129 7.42137 27.3028 6.4252 26.1917C4.48395 24.02 2.74704 20.611 2.33836 18.1362C1.75087 14.6766 3.30898 10.1312 6.11869 7.12618C8.67297 4.39892 11.2783 3.31307 15.0076 3.43933C17.051 3.48984 17.5619 3.6161 19.2221 4.39892ZM16.0548 14.2726C16.2592 14.9039 15.6972 16.2423 15.2375 16.2423C15.0331 16.2423 14.6755 15.8383 14.4456 15.3332C14.0114 14.4494 14.0114 14.4241 14.5734 13.9443C15.2375 13.414 15.7994 13.5403 16.0548 14.2726ZM10.512 17.1009C10.8186 17.5554 11.0484 18.01 11.0484 18.111C11.0484 18.3887 10.0523 18.2625 9.13274 17.909C8.16211 17.5049 7.98331 16.9241 8.64743 16.217C9.18382 15.6362 9.77131 15.914 10.512 17.1009ZM22.0318 16.116C22.5172 16.6716 22.0829 16.9494 20.9591 16.8231C19.9629 16.6968 19.9118 16.3686 20.8569 15.9898C21.6232 15.6867 21.6742 15.6867 22.0318 16.116ZM21.2656 17.9847C21.2656 18.212 20.3971 18.515 19.6819 18.515C19.4265 18.515 19.2221 18.414 19.2221 18.2877C19.2221 18.1615 19.4265 17.9847 19.6819 17.9342C20.4737 17.7322 21.2656 17.7574 21.2656 17.9847ZM15.5184 19.2726C15.7739 19.5504 16.1826 19.8281 16.4124 19.9039C16.8467 20.0302 16.8467 20.1312 16.3869 21.5705C15.6972 23.717 15.3141 27.5806 15.4929 30.2069L15.6462 32.4291L14.5478 32.3533L13.475 32.2776L13.4239 28.9948C13.3728 25.6867 12.9386 20.611 12.6832 19.9039C12.581 19.6514 12.7854 19.3988 13.3728 19.1463C14.5478 18.6665 14.982 18.6665 15.5184 19.2726ZM20.8824 19.5251C20.8058 19.6514 20.2439 19.7524 19.6564 19.7524C18.6347 19.7271 18.6347 19.7019 19.3499 19.5251C20.4737 19.2473 21.0612 19.2473 20.8824 19.5251ZM16.9744 29.7018C17.0255 31.722 16.9744 32.4038 16.7445 32.4038C16.4891 32.4038 16.4124 31.5957 16.4124 29.1463C16.4124 25.6109 16.7445 22.9594 16.8467 25.5857C16.8977 26.3432 16.9488 28.1867 16.9744 29.7018ZM22.134 29.9543C22.0318 30.6109 21.802 31.3432 21.6232 31.5705C21.3167 31.9745 21.2911 31.9745 21.2656 31.3432C21.2656 30.6614 22.0063 28.515 22.1851 28.6917C22.2362 28.7422 22.2106 29.323 22.134 29.9543ZM15.7483 33.7422C20.0906 33.6917 20.3205 33.7169 19.8863 34.121C19.5287 34.4998 18.8901 34.5503 15.1864 34.5503C12.3 34.5503 10.6142 34.4493 9.97565 34.222C8.49417 33.6917 8.46863 33.3382 9.92457 33.5907C10.6142 33.6917 13.2451 33.7675 15.7483 33.7422ZM22.0318 33.7675C22.0318 34.1967 21.6742 34.4998 21.4444 34.2725C21.24 34.0705 21.521 33.4139 21.802 33.4139C21.9297 33.4139 22.0318 33.5654 22.0318 33.7675ZM14.8288 35.8887C17.6896 35.9392 19.9884 36.0907 19.9884 36.2169C19.9884 36.5452 11.1506 36.4947 9.97565 36.1917C9.43925 36.0402 8.95394 35.7876 8.85177 35.6361C8.72405 35.4341 8.80068 35.4089 9.15828 35.5604C9.41371 35.6866 11.968 35.8381 14.8288 35.8887ZM14.65 37.7321C16.9488 37.7573 19.0944 37.7068 19.4265 37.6058C20.1417 37.3785 20.1672 37.8331 19.452 38.2119C18.6347 38.6664 11.1251 38.6664 10.1034 38.2371C9.13274 37.8583 8.95394 37.328 9.84794 37.5553C10.18 37.6311 12.3511 37.7068 14.65 37.7321ZM16.157 40.2068C16.157 40.6361 15.6717 40.7876 14.8799 40.6108C13.7815 40.3836 13.9348 39.9795 15.1353 39.9795C15.6972 39.9795 16.157 40.0805 16.157 40.2068Z" fill="url(#paint0_linear_47_199)"/>
<defs>
<linearGradient id="paint0_linear_47_199" x1="15.0391" y1="48.3883" x2="14.1085" y2="-26.2248" gradientUnits="userSpaceOnUse">
<stop offset="0.046875" stop-color="#E4E4E7" stop-opacity="0"/>
<stop offset="0.510417" stop-color="#E4E4E7"/>
</linearGradient>
</defs>
</svg>
