<svg width="16" height="21" viewBox="0 0 16 21" fill="none" xmlns="http://www.w3.org/2000/svg">
<path d="M6.37514 0.483145C4.29808 1.10282 2.7618 2.29358 1.7417 4.10401C1.01658 5.40412 0.733901 7.38466 1.09032 8.75768C1.40987 9.98488 2.19645 11.4429 3.19196 12.6702C3.89251 13.545 4.16289 13.9946 4.38412 14.6507C4.66679 15.5134 4.70366 16.3761 4.45786 16.8256C4.35954 16.9958 4.39641 17.1294 4.58076 17.3724C4.72824 17.579 4.80199 17.822 4.76512 18.0042C4.66679 18.551 5.60086 19.0856 6.65782 19.0856C6.98966 19.0856 7.0634 19.1464 7.1863 19.5109C7.34608 19.9969 7.61646 20.1792 8.16953 20.1792C8.68572 20.1792 8.99298 19.9969 9.27565 19.5352C9.48459 19.195 9.63207 19.1343 10.517 18.9398C11.832 18.6604 12.1516 18.4538 12.0655 17.9556C12.041 17.7369 12.0901 17.4575 12.1885 17.2995C12.3236 17.1051 12.3359 16.9715 12.2376 16.8013C12.1762 16.6798 12.1516 16.449 12.1885 16.3153C12.2253 16.1695 12.1885 15.963 12.1024 15.8658C11.9795 15.7199 11.9795 15.562 12.0778 15.161C12.1516 14.8816 12.2376 14.4441 12.2745 14.2011C12.3482 13.6543 13.3437 12.3056 14.032 11.8075C14.8677 11.1999 15.3839 10.5438 15.5314 9.85122C15.6052 9.51101 15.642 9.18294 15.6174 9.14649C15.5929 9.09789 15.5068 8.34456 15.4331 7.45757C15.2733 5.68358 15.089 4.9424 14.5236 3.77595C13.7616 2.23283 11.9549 0.871964 10.1237 0.434544C9.06672 0.191532 7.3215 0.215834 6.37514 0.483145ZM10.7751 1.28508C12.2376 1.86831 13.3314 2.88896 14.0197 4.29842C14.5973 5.48917 14.5482 5.69573 13.9214 4.74799C13.2454 3.73949 11.8812 2.31788 11.1069 1.81971C10.7751 1.61315 10.1851 1.30938 9.79184 1.15143C9.12817 0.871964 9.11588 0.859812 9.58291 0.932716C9.8533 0.981318 10.3941 1.13927 10.7751 1.28508ZM10.136 1.96551C11.6845 2.69455 12.9996 4.07971 13.9828 6.0238C14.6342 7.32391 14.708 7.70058 14.499 8.69692C14.1672 10.2522 13.5527 11.1513 11.8812 12.5122C11.1069 13.144 10.6522 13.7759 10.5784 14.3469C10.5416 14.5778 10.4924 14.8573 10.4432 14.9666C10.3449 15.2339 9.76726 15.4891 9.60749 15.3311C9.48459 15.2096 9.57062 10.6289 9.70581 10.0578C9.79184 9.74187 9.82871 9.72972 10.5047 9.72972C11.365 9.72972 11.8566 9.42596 11.8566 8.87918C11.8566 8.68477 11.9181 8.49036 11.9795 8.45391C12.2007 8.32026 12.1147 7.46972 11.8443 7.11735C11.6231 6.85004 11.5125 6.80144 11.1929 6.86219C10.7505 6.94724 9.9762 7.66412 9.75497 8.1623C9.5952 8.55112 9.3371 8.59972 8.96839 8.32026C8.78404 8.1866 8.75946 8.1137 8.88236 8.04079C9.0913 7.91929 9.27565 7.23886 9.27565 6.59488C9.27565 5.93875 8.77175 5.35552 8.19411 5.35552C7.73937 5.35552 7.19859 5.93875 7.17401 6.42477C7.14943 7.0323 7.21088 7.57907 7.33379 7.89499C7.41982 8.138 7.40753 8.2352 7.23546 8.35671C6.90363 8.59972 6.73156 8.55112 6.65782 8.17445C6.53492 7.61552 6.09247 7.0566 5.65002 6.86219C5.28131 6.71638 5.1584 6.71638 4.80199 6.86219C4.29808 7.06875 4.21205 7.2024 4.21205 7.72488C4.21205 8.57542 5.02321 9.3652 5.88353 9.3652C6.27682 9.3652 6.32598 9.40165 6.38743 9.75402C6.4243 9.97273 6.46118 11.3214 6.48576 12.7431C6.51034 15.6106 6.54721 15.5134 5.66231 15.1489C5.25673 14.9788 5.13382 14.7722 4.86344 13.788C4.77741 13.4721 4.45786 12.9861 3.97854 12.4514C3.04448 11.4065 2.20874 9.76617 2.01209 8.57542C1.72941 6.91079 2.47912 4.72369 3.83105 3.27777C5.06008 1.96551 6.31369 1.44304 8.10807 1.50379C9.0913 1.52809 9.3371 1.58885 10.136 1.96551ZM8.61198 6.71638C8.7103 7.02015 8.43991 7.66412 8.21869 7.66412C8.12036 7.66412 7.9483 7.46972 7.83769 7.2267C7.62875 6.80144 7.62875 6.78928 7.89914 6.55842C8.21869 6.30326 8.48907 6.36401 8.61198 6.71638ZM5.94498 8.07724C6.09247 8.29595 6.20308 8.51466 6.20308 8.56327C6.20308 8.69692 5.72376 8.63617 5.28131 8.46606C4.81428 8.27165 4.72824 7.99219 5.04779 7.65197C5.30589 7.37251 5.58856 7.50617 5.94498 8.07724ZM11.4879 7.60337C11.7214 7.87068 11.5125 8.00434 10.9717 7.94359C10.4924 7.88283 10.4678 7.72488 10.9226 7.54262C11.2913 7.39681 11.3158 7.39681 11.4879 7.60337ZM11.1192 8.50251C11.1192 8.61187 10.7013 8.75768 10.3572 8.75768C10.2343 8.75768 10.136 8.70907 10.136 8.64832C10.136 8.58757 10.2343 8.50251 10.3572 8.47821C10.7382 8.38101 11.1192 8.39316 11.1192 8.50251ZM8.35388 9.12219C8.47678 9.25585 8.67343 9.3895 8.78404 9.42596C8.99298 9.48671 8.99298 9.53531 8.77175 10.2279C8.43991 11.2607 8.25556 13.1197 8.34159 14.3834L8.41533 15.4526L7.88685 15.4162L7.37066 15.3797L7.34608 13.8002C7.3215 12.2084 7.11256 9.76617 6.98966 9.42596C6.9405 9.30445 7.03882 9.18294 7.3215 9.06144C7.88685 8.83058 8.09578 8.83058 8.35388 9.12219ZM10.9348 9.2437C10.898 9.30445 10.6276 9.35305 10.3449 9.35305C9.8533 9.3409 9.8533 9.32875 10.1974 9.2437C10.7382 9.11004 11.0209 9.11004 10.9348 9.2437ZM9.05443 14.1404C9.07901 15.1124 9.05443 15.4405 8.94381 15.4405C8.82091 15.4405 8.78404 15.0517 8.78404 13.8731C8.78404 12.172 8.94381 10.8962 8.99298 12.1598C9.01756 12.5243 9.04214 13.4113 9.05443 14.1404ZM11.5371 14.2619C11.4879 14.5778 11.3773 14.9302 11.2913 15.0395C11.1438 15.2339 11.1315 15.2339 11.1192 14.9302C11.1192 14.6021 11.4756 13.5693 11.5616 13.6543C11.5862 13.6787 11.5739 13.9581 11.5371 14.2619ZM8.46449 16.0845C10.5538 16.0602 10.6645 16.0723 10.4555 16.2667C10.2835 16.449 9.9762 16.4733 8.19411 16.4733C6.8053 16.4733 5.99414 16.4247 5.68689 16.3153C4.97405 16.0602 4.96176 15.8901 5.66231 16.0116C5.99414 16.0602 7.26004 16.0966 8.46449 16.0845ZM11.4879 16.0966C11.4879 16.3032 11.3158 16.449 11.2052 16.3396C11.1069 16.2424 11.2421 15.9265 11.3773 15.9265C11.4387 15.9265 11.4879 15.9994 11.4879 16.0966ZM8.02204 17.1173C9.39855 17.1416 10.5047 17.2145 10.5047 17.2752C10.5047 17.4332 6.25224 17.4089 5.68689 17.2631C5.42879 17.1902 5.19528 17.0687 5.14611 16.9958C5.08466 16.8985 5.12153 16.8864 5.2936 16.9593C5.4165 17.0201 6.64553 17.093 8.02204 17.1173ZM7.93601 18.0042C9.04214 18.0164 10.0745 17.9921 10.2343 17.9435C10.5784 17.8341 10.5907 18.0529 10.2466 18.2351C9.8533 18.4538 6.23995 18.4538 5.74834 18.2473C5.28131 18.065 5.19528 17.8098 5.62544 17.9192C5.78521 17.9556 6.82988 17.9921 7.93601 18.0042ZM8.66114 19.195C8.66114 19.4016 8.42762 19.4745 8.04662 19.3894C7.51814 19.2801 7.59188 19.0856 8.16953 19.0856C8.43991 19.0856 8.66114 19.1343 8.66114 19.195Z" fill="url(#paint0_linear_77_304)"/>
<defs>
<linearGradient id="paint0_linear_77_304" x1="8.12326" y1="23.1316" x2="7.67545" y2="-12.7695" gradientUnits="userSpaceOnUse">
<stop offset="0.046875" stop-color="#E4E4E7" stop-opacity="0"/>
<stop offset="0.510417" stop-color="#E4E4E7"/>
</linearGradient>
</defs>
</svg>
