<svg width="19" height="16" viewBox="0 0 19 16" fill="none" xmlns="http://www.w3.org/2000/svg">
<path d="M18.8227 8.43571L11.5459 15.8345C11.4309 15.9434 11.2789 16.0027 11.1218 15.9999C10.9647 15.9971 10.8148 15.9324 10.7037 15.8194C10.5926 15.7064 10.5289 15.554 10.5262 15.3943C10.5234 15.2346 10.5817 15.08 10.6888 14.9631L16.9297 8.61657H0.6064C0.445573 8.61657 0.291332 8.55161 0.17761 8.43598C0.0638883 8.32035 0 8.16352 0 8C0 7.83648 0.0638883 7.67965 0.17761 7.56402C0.291332 7.44839 0.445573 7.38343 0.6064 7.38343H16.9297L10.6888 1.0369C10.5817 0.920015 10.5234 0.765424 10.5262 0.605691C10.5289 0.445958 10.5926 0.293554 10.7037 0.180588C10.8148 0.0676225 10.9647 0.00291436 11.1218 9.60591e-05C11.2789 -0.00272224 11.4309 0.0565693 11.5459 0.16548L18.8227 7.56429C18.9362 7.6799 19 7.83661 19 8C19 8.16339 18.9362 8.3201 18.8227 8.43571Z" fill="#666666"/>
</svg>
