<svg width="19" height="18" viewBox="0 0 19 18" fill="none" xmlns="http://www.w3.org/2000/svg">
<path d="M9.5 0C8.25244 0 7.0171 0.238571 5.86451 0.702093C4.71191 1.16561 3.66464 1.84501 2.78249 2.70148C1.00089 4.43121 0 6.77723 0 9.22344C0 13.3002 2.7265 16.759 6.498 17.9857C6.973 18.0595 7.125 17.7736 7.125 17.5245V15.9658C4.4935 16.5192 3.933 14.7298 3.933 14.7298C3.496 13.6599 2.8785 13.374 2.8785 13.374C2.014 12.8021 2.945 12.8206 2.945 12.8206C3.895 12.8851 4.3985 13.7706 4.3985 13.7706C5.225 15.1726 6.6215 14.7575 7.163 14.5361C7.2485 13.9366 7.4955 13.5308 7.7615 13.3002C5.6525 13.0696 3.439 12.2764 3.439 8.76227C3.439 7.73847 3.8 6.91758 4.4175 6.26272C4.3225 6.03213 3.99 5.07289 4.5125 3.82773C4.5125 3.82773 5.3105 3.5787 7.125 4.76852C7.8755 4.5656 8.6925 4.46415 9.5 4.46415C10.3075 4.46415 11.1245 4.5656 11.875 4.76852C13.6895 3.5787 14.4875 3.82773 14.4875 3.82773C15.01 5.07289 14.6775 6.03213 14.5825 6.26272C15.2 6.91758 15.561 7.73847 15.561 8.76227C15.561 12.2856 13.338 13.0604 11.2195 13.291C11.5615 13.5769 11.875 14.1395 11.875 14.9973V17.5245C11.875 17.7736 12.027 18.0687 12.5115 17.9857C16.283 16.7498 19 13.3002 19 9.22344C19 8.0122 18.7543 6.81282 18.2769 5.69378C17.7994 4.57474 17.0997 3.55796 16.2175 2.70148C15.3354 1.84501 14.2881 1.16561 13.1355 0.702093C11.9829 0.238571 10.7476 0 9.5 0Z" fill="#9F9FAD"/>
</svg>
