<svg width="20" height="16" viewBox="0 0 20 16" fill="none" xmlns="http://www.w3.org/2000/svg">
<path d="M19.54 1.88235C18.8407 2.21176 18.0869 2.42824 17.3058 2.53176C18.105 2.03294 18.7226 1.24235 19.0133 0.291765C18.2594 0.762353 17.4239 1.09176 16.5429 1.28C15.8254 0.470588 14.8173 0 13.6729 0C11.5386 0 9.79482 1.80706 9.79482 4.03765C9.79482 4.35765 9.83115 4.66824 9.89472 4.96C6.66146 4.79059 3.78239 3.18118 1.86604 0.743529C1.53 1.33647 1.33927 2.03294 1.33927 2.76706C1.33927 4.16941 2.02044 5.41176 3.07398 6.11765C2.42914 6.11765 1.82971 5.92941 1.30295 5.64706V5.67529C1.30295 7.63294 2.64711 9.27059 4.42723 9.63765C3.85571 9.79973 3.25571 9.82228 2.67436 9.70353C2.92104 10.5059 3.40415 11.2079 4.05578 11.711C4.70741 12.2141 5.4948 12.4929 6.30725 12.5082C4.93005 13.6381 3.22292 14.2488 1.46643 14.24C1.15763 14.24 0.848835 14.2212 0.540039 14.1835C2.26566 15.3318 4.31824 16 6.51614 16C13.6729 16 17.6055 9.84471 17.6055 4.50824C17.6055 4.32941 17.6055 4.16 17.5964 3.98118C18.3594 3.41647 19.0133 2.70118 19.54 1.88235Z" fill="#9F9FAD"/>
</svg>
